<mxfile host="app.diagrams.net" modified="2024-05-06T08:19:26.682Z" agent="Mozilla/5.0 (Windows NT 10.0; Win64; x64) AppleWebKit/537.36 (KHTML, like Gecko) Chrome/122.0.0.0 Safari/537.36 Edg/122.0.0.0" version="24.3.1" etag="IPpVRAR8y260TGQn6yPp" type="device">
  <diagram id="J4oVw3FTv2D22wYE9SAm" name="第 1 页">
    <mxGraphModel dx="552" dy="587" grid="1" gridSize="10" guides="1" tooltips="1" connect="1" arrows="1" fold="1" page="1" pageScale="1" pageWidth="827" pageHeight="1169" math="0" shadow="0">
      <root>
        <mxCell id="0" />
        <mxCell id="1" parent="0" />
        <mxCell id="9k2rEvrS8zb9RsBSxXWa-1" value="" style="rounded=0;whiteSpace=wrap;html=1;" vertex="1" parent="1">
          <mxGeometry x="80" y="160" width="120" height="160" as="geometry" />
        </mxCell>
        <mxCell id="9k2rEvrS8zb9RsBSxXWa-2" value="&lt;font style=&quot;font-size: 20px;&quot;&gt;head&lt;/font&gt;" style="text;html=1;align=center;verticalAlign=middle;whiteSpace=wrap;rounded=0;" vertex="1" parent="1">
          <mxGeometry x="110" y="170" width="60" height="30" as="geometry" />
        </mxCell>
        <mxCell id="9k2rEvrS8zb9RsBSxXWa-7" style="edgeStyle=orthogonalEdgeStyle;rounded=0;orthogonalLoop=1;jettySize=auto;html=1;exitX=1;exitY=0.5;exitDx=0;exitDy=0;" edge="1" parent="1" source="9k2rEvrS8zb9RsBSxXWa-3" target="9k2rEvrS8zb9RsBSxXWa-6">
          <mxGeometry relative="1" as="geometry" />
        </mxCell>
        <mxCell id="9k2rEvrS8zb9RsBSxXWa-3" value="&lt;font style=&quot;font-size: 20px;&quot;&gt;first&lt;/font&gt;" style="rounded=0;whiteSpace=wrap;html=1;" vertex="1" parent="1">
          <mxGeometry x="100" y="220" width="80" height="40" as="geometry" />
        </mxCell>
        <mxCell id="9k2rEvrS8zb9RsBSxXWa-5" style="edgeStyle=orthogonalEdgeStyle;rounded=0;orthogonalLoop=1;jettySize=auto;html=1;exitX=1;exitY=0.5;exitDx=0;exitDy=0;entryX=0;entryY=0.5;entryDx=0;entryDy=0;curved=1;" edge="1" parent="1" source="9k2rEvrS8zb9RsBSxXWa-4" target="9k2rEvrS8zb9RsBSxXWa-3">
          <mxGeometry relative="1" as="geometry">
            <Array as="points">
              <mxPoint x="220" y="280" />
              <mxPoint x="220" y="350" />
              <mxPoint x="60" y="350" />
              <mxPoint x="60" y="240" />
            </Array>
          </mxGeometry>
        </mxCell>
        <mxCell id="9k2rEvrS8zb9RsBSxXWa-4" value="&lt;font style=&quot;font-size: 20px;&quot;&gt;last&lt;/font&gt;" style="rounded=0;whiteSpace=wrap;html=1;" vertex="1" parent="1">
          <mxGeometry x="100" y="260" width="80" height="40" as="geometry" />
        </mxCell>
        <mxCell id="9k2rEvrS8zb9RsBSxXWa-6" value="" style="ellipse;whiteSpace=wrap;html=1;aspect=fixed;" vertex="1" parent="1">
          <mxGeometry x="240" y="230" width="20" height="20" as="geometry" />
        </mxCell>
        <mxCell id="9k2rEvrS8zb9RsBSxXWa-8" value="" style="rounded=0;whiteSpace=wrap;html=1;" vertex="1" parent="1">
          <mxGeometry x="480" y="160" width="120" height="160" as="geometry" />
        </mxCell>
        <mxCell id="9k2rEvrS8zb9RsBSxXWa-9" value="&lt;font style=&quot;font-size: 20px;&quot;&gt;head&lt;/font&gt;" style="text;html=1;align=center;verticalAlign=middle;whiteSpace=wrap;rounded=0;" vertex="1" parent="1">
          <mxGeometry x="510" y="170" width="60" height="30" as="geometry" />
        </mxCell>
        <mxCell id="9k2rEvrS8zb9RsBSxXWa-24" style="edgeStyle=orthogonalEdgeStyle;rounded=0;orthogonalLoop=1;jettySize=auto;html=1;exitX=1;exitY=0.5;exitDx=0;exitDy=0;entryX=0;entryY=0.25;entryDx=0;entryDy=0;curved=1;" edge="1" parent="1" source="9k2rEvrS8zb9RsBSxXWa-11" target="9k2rEvrS8zb9RsBSxXWa-15">
          <mxGeometry relative="1" as="geometry">
            <Array as="points">
              <mxPoint x="650" y="240" />
              <mxPoint x="650" y="350" />
              <mxPoint x="300" y="350" />
              <mxPoint x="300" y="430" />
            </Array>
          </mxGeometry>
        </mxCell>
        <mxCell id="9k2rEvrS8zb9RsBSxXWa-11" value="&lt;font style=&quot;font-size: 20px;&quot;&gt;first&lt;/font&gt;" style="rounded=0;whiteSpace=wrap;html=1;" vertex="1" parent="1">
          <mxGeometry x="500" y="220" width="80" height="40" as="geometry" />
        </mxCell>
        <mxCell id="9k2rEvrS8zb9RsBSxXWa-13" value="&lt;font style=&quot;font-size: 20px;&quot;&gt;last&lt;/font&gt;" style="rounded=0;whiteSpace=wrap;html=1;" vertex="1" parent="1">
          <mxGeometry x="500" y="260" width="80" height="40" as="geometry" />
        </mxCell>
        <mxCell id="9k2rEvrS8zb9RsBSxXWa-14" value="" style="ellipse;whiteSpace=wrap;html=1;aspect=fixed;" vertex="1" parent="1">
          <mxGeometry x="800" y="470" width="20" height="20" as="geometry" />
        </mxCell>
        <mxCell id="9k2rEvrS8zb9RsBSxXWa-15" value="" style="rounded=0;whiteSpace=wrap;html=1;" vertex="1" parent="1">
          <mxGeometry x="320" y="400" width="120" height="120" as="geometry" />
        </mxCell>
        <mxCell id="9k2rEvrS8zb9RsBSxXWa-25" style="edgeStyle=orthogonalEdgeStyle;rounded=0;orthogonalLoop=1;jettySize=auto;html=1;exitX=1;exitY=0.5;exitDx=0;exitDy=0;entryX=0;entryY=0.25;entryDx=0;entryDy=0;curved=1;" edge="1" parent="1" source="9k2rEvrS8zb9RsBSxXWa-16" target="9k2rEvrS8zb9RsBSxXWa-18">
          <mxGeometry relative="1" as="geometry" />
        </mxCell>
        <mxCell id="9k2rEvrS8zb9RsBSxXWa-16" value="&lt;font style=&quot;font-size: 20px;&quot;&gt;next&lt;/font&gt;" style="rounded=0;whiteSpace=wrap;html=1;" vertex="1" parent="1">
          <mxGeometry x="340" y="460" width="80" height="40" as="geometry" />
        </mxCell>
        <mxCell id="9k2rEvrS8zb9RsBSxXWa-17" value="&lt;font style=&quot;font-size: 20px;&quot;&gt;elm&lt;/font&gt;" style="text;html=1;align=center;verticalAlign=middle;whiteSpace=wrap;rounded=0;" vertex="1" parent="1">
          <mxGeometry x="350" y="410" width="60" height="30" as="geometry" />
        </mxCell>
        <mxCell id="9k2rEvrS8zb9RsBSxXWa-18" value="" style="rounded=0;whiteSpace=wrap;html=1;" vertex="1" parent="1">
          <mxGeometry x="480" y="400" width="120" height="120" as="geometry" />
        </mxCell>
        <mxCell id="9k2rEvrS8zb9RsBSxXWa-26" style="edgeStyle=orthogonalEdgeStyle;rounded=0;orthogonalLoop=1;jettySize=auto;html=1;exitX=1;exitY=0.5;exitDx=0;exitDy=0;entryX=0;entryY=0.25;entryDx=0;entryDy=0;curved=1;" edge="1" parent="1" source="9k2rEvrS8zb9RsBSxXWa-19" target="9k2rEvrS8zb9RsBSxXWa-21">
          <mxGeometry relative="1" as="geometry" />
        </mxCell>
        <mxCell id="9k2rEvrS8zb9RsBSxXWa-19" value="&lt;font style=&quot;font-size: 20px;&quot;&gt;next&lt;/font&gt;" style="rounded=0;whiteSpace=wrap;html=1;" vertex="1" parent="1">
          <mxGeometry x="500" y="460" width="80" height="40" as="geometry" />
        </mxCell>
        <mxCell id="9k2rEvrS8zb9RsBSxXWa-20" value="&lt;font style=&quot;font-size: 20px;&quot;&gt;elm&lt;/font&gt;" style="text;html=1;align=center;verticalAlign=middle;whiteSpace=wrap;rounded=0;" vertex="1" parent="1">
          <mxGeometry x="510" y="410" width="60" height="30" as="geometry" />
        </mxCell>
        <mxCell id="9k2rEvrS8zb9RsBSxXWa-21" value="" style="rounded=0;whiteSpace=wrap;html=1;" vertex="1" parent="1">
          <mxGeometry x="640" y="400" width="120" height="120" as="geometry" />
        </mxCell>
        <mxCell id="9k2rEvrS8zb9RsBSxXWa-27" style="edgeStyle=orthogonalEdgeStyle;rounded=0;orthogonalLoop=1;jettySize=auto;html=1;exitX=1;exitY=0.5;exitDx=0;exitDy=0;" edge="1" parent="1" source="9k2rEvrS8zb9RsBSxXWa-22" target="9k2rEvrS8zb9RsBSxXWa-14">
          <mxGeometry relative="1" as="geometry" />
        </mxCell>
        <mxCell id="9k2rEvrS8zb9RsBSxXWa-22" value="&lt;font style=&quot;font-size: 20px;&quot;&gt;next&lt;/font&gt;" style="rounded=0;whiteSpace=wrap;html=1;" vertex="1" parent="1">
          <mxGeometry x="660" y="460" width="80" height="40" as="geometry" />
        </mxCell>
        <mxCell id="9k2rEvrS8zb9RsBSxXWa-23" value="&lt;font style=&quot;font-size: 20px;&quot;&gt;elm&lt;/font&gt;" style="text;html=1;align=center;verticalAlign=middle;whiteSpace=wrap;rounded=0;" vertex="1" parent="1">
          <mxGeometry x="670" y="410" width="60" height="30" as="geometry" />
        </mxCell>
        <mxCell id="9k2rEvrS8zb9RsBSxXWa-28" style="edgeStyle=orthogonalEdgeStyle;rounded=0;orthogonalLoop=1;jettySize=auto;html=1;exitX=1;exitY=0.5;exitDx=0;exitDy=0;entryX=0;entryY=0.5;entryDx=0;entryDy=0;curved=1;" edge="1" parent="1" source="9k2rEvrS8zb9RsBSxXWa-13" target="9k2rEvrS8zb9RsBSxXWa-22">
          <mxGeometry relative="1" as="geometry" />
        </mxCell>
      </root>
    </mxGraphModel>
  </diagram>
</mxfile>
